<?xml version="1.0" standalone="no"?>
<!DOCTYPE svg PUBLIC "-//W3C//DTD SVG 20010904//EN"
 "http://www.w3.org/TR/2001/REC-SVG-20010904/DTD/svg10.dtd">
<svg version="1.0" xmlns="http://www.w3.org/2000/svg"
 width="1197.000000pt" height="1280.000000pt" viewBox="0 0 1197.000000 1280.000000"
 preserveAspectRatio="xMidYMid meet">
<metadata>
Created by potrace 1.15, written by Peter Selinger 2001-2017
</metadata>
<g transform="translate(0.000000,1280.000000) scale(0.100000,-0.100000)"
fill="#000000" stroke="none">
<path d="M5685 12794 c-1704 -93 -3264 -882 -4336 -2194 -1021 -1249 -1493
-2860 -1309 -4470 200 -1752 1157 -3315 2630 -4300 755 -504 1631 -833 2531
-949 309 -40 410 -46 784 -46 374 0 475 6 784 46 649 84 1296 280 1875 570 76
38 140 68 141 67 1 -2 -18 -57 -42 -123 -24 -65 -59 -178 -78 -250 -80 -313
-75 -527 20 -720 87 -179 244 -308 487 -399 l67 -25 10 31 c14 39 14 58 0 58
-6 0 -44 13 -86 30 -241 97 -392 251 -449 460 -24 87 -24 283 0 405 23 124 85
328 144 476 l49 124 149 90 c538 326 1006 715 1409 1170 1342 1513 1826 3601
1290 5560 -330 1204 -1042 2289 -2016 3071 -929 746 -2007 1182 -3209 1299
-158 15 -690 27 -845 19z m-2030 -1815 c109 -16 358 -84 384 -105 1 -1 -39
-24 -90 -50 -675 -338 -1263 -854 -1680 -1474 -116 -172 -189 -296 -289 -492
l-86 -167 -32 87 c-129 356 -135 733 -16 1091 229 689 897 1154 1619 1125 66
-3 152 -10 190 -15z m5130 -5 c595 -93 1104 -527 1295 -1103 48 -144 67 -235
82 -396 19 -207 -14 -463 -85 -669 l-23 -70 -81 155 c-222 428 -470 768 -807
1105 -338 338 -697 600 -1112 811 -74 37 -134 71 -134 74 0 8 112 45 205 68
209 51 435 60 660 25z m-6811 -6192 c329 -657 808 -1214 1407 -1639 169 -120
352 -229 574 -344 l130 -68 -45 -19 c-283 -120 -652 -154 -969 -87 -889 186
-1462 1064 -1275 1955 24 114 95 330 109 330 3 0 34 -58 69 -128z m8141 -132
c44 -173 44 -185 -15 -355 -113 -324 -233 -601 -461 -1063 l-170 -343 -62 -41
c-129 -83 -315 -164 -482 -207 -219 -58 -516 -66 -730 -21 -103 22 -303 84
-319 100 -4 4 32 27 80 50 313 146 673 383 974 640 423 361 804 850 1057 1354
l55 110 25 -64 c13 -36 35 -108 48 -160z m46 -552 c-29 -293 -115 -539 -270
-771 -65 -97 -233 -297 -249 -297 -4 0 39 93 95 207 164 333 322 691 398 906
15 42 30 75 33 73 2 -3 -1 -56 -7 -118z"/>
</g>
</svg>
